/* XPM */
static char * unchecked_xpm[] = {
"16 16 6 1",
"    c None",
".   c #9D9D9D",
"+   c #E0E0E0",
"@   c #DADADA",
"#   c #F4F4F4",
"$   c #FFFFFF",
"                ",
"                ",
"   ...........  ",
"  .++++++++++@. ",
"  .+#########$. ",
"  .+#########$. ",
"  .+#########$. ",
"  .+#########$. ",
"  .+#########$. ",
"  .+#########$. ",
"  .+#########$. ",
"  .+#########$. ",
"  .+#########$. ",
"  .@$$$$$$$$$$. ",
"   ...........  ",
"                "};